<?xml version="1.0" standalone="no"?>
<!DOCTYPE svg PUBLIC "-//W3C//DTD SVG 20010904//EN"
 "http://www.w3.org/TR/2001/REC-SVG-20010904/DTD/svg10.dtd">
<svg version="1.0" xmlns="http://www.w3.org/2000/svg"
 width="500.000000pt" height="500.000000pt" viewBox="0 0 500.000000 500.000000"
 preserveAspectRatio="xMidYMid meet">

<g transform="translate(0.000000,500.000000) scale(0.100000,-0.100000)"
fill="#000000" stroke="none">
<path d="M3992 2798 c-7 -7 -12 -38 -12 -70 l0 -58 -534 0 c-442 0 -536 -2
-545 -14 -8 -9 -11 -63 -9 -167 l3 -154 543 -3 542 -2 0 -64 c0 -44 5 -67 15
-76 12 -10 82 14 392 136 315 125 378 153 378 169 0 16 -62 44 -375 167 -206
81 -377 148 -380 148 -4 0 -11 -5 -18 -12z"/>
</g>
</svg>
