<svg xmlns="http://www.w3.org/2000/svg" xmlns:xlink="http://www.w3.org/1999/xlink" version="1.1" width="483pt" height="484pt" viewBox="0 0 483 484">
<defs>
<clipPath id="clip_0">
<path transform="matrix(0,-1,-1,-0,695,546)" d="M0 0H612V792H0Z"/>
</clipPath>
<clipPath id="clip_1">
<path transform="matrix(0,-.12,-.12,-0,645,530)" d="M0 1006H4826V5759H0V1006"/>
</clipPath>
<clipPath id="clip_2">
<path transform="matrix(0,-.12,-.12,-0,645,530)" d="M0 1006H4826V5759H0V1006"/>
</clipPath>
</defs>
<g clip-path="url(#clip_0)">
<g clip-path="url(#clip_1)">
<g id="layer_1" data-name="">
<path transform="matrix(.12,0,0,-.12,241.26001,241.94)" stroke-width="6" stroke-linecap="round" stroke-linejoin="round" fill="none" stroke="#000000" d="M2006.5 0C2006.5 1108.1594 1108.1594 2006.5 0 2006.5-1108.1594 2006.5-2006.5 1108.1594-2006.5 0-2006.5-1108.1594-1108.1594-2006.5 0-2006.5 1108.1594-2006.5 2006.5-1108.1594 2006.5 0"/>
<path transform="matrix(0,-.12,-.12,-0,645,530)" stroke-width="6" stroke-linecap="round" stroke-linejoin="round" fill="none" stroke="#000000" d="M4138 2361 2400 3364V1357"/>
<path transform="matrix(0,-.12,-.12,-0,645,530)" stroke-width="6" stroke-linecap="round" stroke-linejoin="round" fill="none" stroke="#000000" d="M4138 4367 2400 3364H4407"/>
<path transform="matrix(0,-.12,-.12,-0,645,530)" stroke-width="6" stroke-linecap="round" stroke-linejoin="round" fill="none" stroke="#000000" d="M2902 4232 3404 5101"/>
<path transform="matrix(0,-.12,-.12,-0,645,530)" stroke-width="6" stroke-linecap="round" stroke-linejoin="round" fill="none" stroke="#000000" d="M663 4367 2400 3364V5370"/>
<path transform="matrix(0,-.12,-.12,-0,645,530)" stroke-width="6" stroke-linecap="round" stroke-linejoin="round" fill="none" stroke="#000000" d="M663 2361 2400 3364H394"/>
<path transform="matrix(0,-.12,-.12,-0,645,530)" stroke-width="6" stroke-linecap="round" stroke-linejoin="round" fill="none" stroke="#000000" d="M1899 2495 1397 1626"/>
</g>
</g>
<g clip-path="url(#clip_2)">
<g id="layer_1" data-name="">
<text xml:space="preserve" transform="matrix(.12 0 0 .12 645 530)" font-size="186.842" font-family="ArialMT"><tspan y="-2424" x="-1617">B</tspan></text>
</g>
</g>
</g>
</svg>
