<svg xmlns="http://www.w3.org/2000/svg" xmlns:xlink="http://www.w3.org/1999/xlink" version="1.1" width="491pt" height="491pt" viewBox="0 0 491 491">
<defs>
<clipPath id="clip_0">
<path transform="matrix(0,-1,-1,-0,711,548)" d="M0 0H612V792H0Z"/>
</clipPath>
<clipPath id="clip_1">
<path transform="matrix(0,-.12,-.12,-0,661,532)" d="M0 954H4826V5758H0V954"/>
</clipPath>
<clipPath id="clip_2">
<path transform="matrix(0,-.12,-.12,-0,661,532)" d="M0 954H4826V5758H0V954"/>
</clipPath>
</defs>
<g clip-path="url(#clip_0)">
<g clip-path="url(#clip_1)">
<g id="layer_1" data-name="">
<path transform="matrix(.12,0,0,-.12,245.14002,245.5)" stroke-width="6" stroke-linecap="round" stroke-linejoin="round" fill="none" stroke="#000000" d="M2039.5 0C2039.5 1125.8325 1126.3848 2038.5 0 2038.5-1126.3848 2038.5-2039.5 1125.8325-2039.5 0-2039.5-1125.8325-1126.3848-2038.5 0-2038.5 1126.3848-2038.5 2039.5-1125.8325 2039.5 0"/>
<path transform="matrix(0,-.12,-.12,-0,661,532)" stroke-width="6" stroke-linecap="round" stroke-linejoin="round" fill="none" stroke="#000000" d="M2387 2786V1427"/>
<path transform="matrix(0,-.12,-.12,-0,661,532)" stroke-width="6" stroke-linecap="round" stroke-linejoin="round" fill="none" stroke="#000000" d="M3261 2424 3698 1904"/>
<path transform="matrix(0,-.12,-.12,-0,661,532)" stroke-width="6" stroke-linecap="round" stroke-linejoin="round" fill="none" stroke="#000000" d="M2976 3126 4153 2446"/>
<path transform="matrix(0,-.12,-.12,-0,661,532)" stroke-width="6" stroke-linecap="round" stroke-linejoin="round" fill="none" stroke="#000000" d="M3726 3229 4395 3111"/>
<path transform="matrix(0,-.12,-.12,-0,661,532)" stroke-width="6" stroke-linecap="round" stroke-linejoin="round" fill="none" stroke="#000000" d="M2976 3805 4153 4485"/>
<path transform="matrix(0,-.12,-.12,-0,661,532)" stroke-width="6" stroke-linecap="round" stroke-linejoin="round" fill="none" stroke="#000000" d="M2852 4743 3085 5381"/>
<path transform="matrix(0,-.12,-.12,-0,661,532)" stroke-width="6" stroke-linecap="round" stroke-linejoin="round" fill="none" stroke="#000000" d="M2387 4145V5504"/>
<path transform="matrix(0,-.12,-.12,-0,661,532)" stroke-width="6" stroke-linecap="round" stroke-linejoin="round" fill="none" stroke="#000000" d="M1922 4743 1690 5381"/>
<path transform="matrix(0,-.12,-.12,-0,661,532)" stroke-width="6" stroke-linecap="round" stroke-linejoin="round" fill="none" stroke="#000000" d="M1799 3805 621 4485"/>
<path transform="matrix(0,-.12,-.12,-0,661,532)" stroke-width="6" stroke-linecap="round" stroke-linejoin="round" fill="none" stroke="#000000" d="M1048 3229 379 3111"/>
<path transform="matrix(0,-.12,-.12,-0,661,532)" stroke-width="6" stroke-linecap="round" stroke-linejoin="round" fill="none" stroke="#000000" d="M1799 3126 621 2446"/>
<path transform="matrix(0,-.12,-.12,-0,661,532)" stroke-width="6" stroke-linecap="round" stroke-linejoin="round" fill="none" stroke="#000000" d="M1513 2424 1076 1904"/>
<path transform="matrix(0,-.12,-.12,-0,661,532)" stroke-width="6" stroke-linecap="round" stroke-linejoin="round" fill="none" stroke="#000000" d="M2976 3805 2387 4145 1799 3805V3126L2387 2786 2976 3126V3805"/>
</g>
</g>
<g clip-path="url(#clip_2)">
<g id="layer_1" data-name="">
<text xml:space="preserve" transform="matrix(.12 0 0 .12 661 532)" font-size="189.879" font-family="ArialMT"><tspan y="-2411" x="-1691">B</tspan></text>
</g>
</g>
</g>
</svg>
